<svg width="61" height="58" viewBox="0 0 61 58" fill="none" xmlns="http://www.w3.org/2000/svg">
<path d="M54.2806 0.814381C51.6738 1.25944 49.4291 1.66189 49.2909 1.71397C49.1575 1.76132 48.9574 1.87495 48.8477 1.96018C48.4665 2.25846 48.4903 2.21112 47.3323 5.16083C47.0702 5.82369 46.2076 8.02532 45.4117 10.047L43.9677 13.7306H43.6008C43.4006 13.7306 40.2553 13.8064 36.6144 13.8963C32.9782 13.9863 26.5256 14.1473 22.2794 14.2514C0.681592 14.7865 1.45839 14.7628 1.21058 14.848C0.90081 14.9474 0.734013 15.0563 0.490967 15.3025C0.24792 15.5535 0.0477637 15.9654 0.0144043 16.2968C0.00010745 16.4578 0.143076 17.7977 0.424248 20.0751C0.662529 22.0163 1.13433 25.9035 1.47745 28.7159C2.44487 36.6655 2.35909 36.0358 2.50682 36.3625C2.6355 36.6513 2.99768 37.0443 3.26932 37.1816C3.60292 37.352 2.81182 37.281 14.5829 38.209C16.9038 38.3936 20.6877 38.6919 22.9942 38.8718C25.3008 39.0565 28.7368 39.3264 30.6335 39.4779L34.0743 39.7478L37.2196 42.2003C38.9448 43.5497 40.4793 44.7807 40.6223 44.937C40.932 45.2684 41.2513 45.8745 41.3228 46.2816C41.461 47.0439 41.1465 47.6594 40.4793 47.9198L40.1981 48.0287L35.6946 48.0666C33.2165 48.0856 24.748 48.1234 16.8704 48.1424L2.54972 48.1803L2.27331 48.2892C1.88729 48.4407 1.48222 48.8242 1.30589 49.203C1.19151 49.4539 1.17245 49.5581 1.17245 49.88C1.17722 50.112 1.20581 50.3393 1.25823 50.4671C1.36308 50.7465 1.63472 51.0968 1.88729 51.2767C2.3019 51.5703 2.36386 51.5798 3.98893 51.6082L5.48057 51.6318L5.22323 51.8307C4.67995 52.2474 4.20815 52.9576 4.01276 53.6583C3.95557 53.8714 3.93175 54.1223 3.93651 54.5674C3.93651 55.1024 3.95557 55.235 4.06518 55.5616C4.53698 56.9584 5.73792 57.8911 7.1962 57.9858C8.52104 58.0663 9.85065 57.3277 10.4749 56.163C11.0468 55.0929 11.0135 53.7861 10.3939 52.7445C10.2033 52.4273 9.79823 51.9822 9.45987 51.7171L9.26924 51.5656H13.3248C15.5551 51.5608 22.2127 51.5466 28.122 51.5324L38.8638 51.504L38.6493 51.6413C37.6247 52.3136 37.0147 53.5163 37.091 54.7331C37.1863 56.2955 38.3395 57.607 39.8979 57.9243C40.6699 58.0805 41.3467 57.9905 42.1234 57.6118C42.5571 57.4082 42.6763 57.3182 43.0337 56.9631C43.3673 56.6317 43.4817 56.4754 43.6675 56.1061C43.9725 55.5001 44.0535 55.1592 44.0535 54.52C44.0535 53.8998 43.9725 53.5447 43.7056 53.0049C43.4769 52.5456 43.1528 52.1385 42.7716 51.8307C42.4523 51.5798 41.8327 51.2483 41.5754 51.201C41.3371 51.1584 41.3371 51.111 41.5849 51.0163C41.909 50.8932 42.4332 50.595 42.7954 50.3298C43.7056 49.6575 44.592 48.346 44.7541 47.4322C44.8256 47.0061 44.8256 46.1538 44.7541 45.7372C44.6635 45.2495 44.4348 44.563 44.2156 44.1274C43.6008 42.92 43.048 42.3755 40.1648 40.1313C38.9638 39.1985 37.9821 38.4126 37.9821 38.3889C37.9821 38.3652 38.3252 37.4656 38.7494 36.3956C39.1735 35.3208 39.6834 34.0188 39.8884 33.498C40.0933 32.9772 40.6509 31.5615 41.1274 30.3494C41.604 29.1373 42.1663 27.7122 42.376 27.1772C42.8478 25.9698 43.8867 23.3373 45.4641 19.3176C45.6452 18.863 46.179 17.4994 46.6556 16.2874C47.5801 13.9342 47.704 13.6265 49.0384 10.227C49.9057 8.02058 50.4585 6.61438 50.9065 5.46859C51.0399 5.12769 51.1543 4.84834 51.1591 4.83887C51.1686 4.8294 53.1082 4.49797 55.472 4.09552C60.2328 3.29063 60.0803 3.3285 60.4949 2.88818C60.8428 2.51887 60.9715 2.19218 60.9715 1.7045C60.9715 1.24997 60.8523 0.918545 60.5807 0.610789C60.2566 0.241483 59.7229 -0.00472073 59.2654 0.00474866C59.132 0.00474866 56.8873 0.36932 54.2806 0.814381ZM42.5571 16.723C41.2752 20.0088 40.3554 22.3478 40.303 22.4425L40.241 22.5608H38.6731H37.1005V19.5306V16.5004L39.0306 16.4483C40.0933 16.4199 41.3514 16.3963 41.828 16.3915L42.6906 16.3821L42.5571 16.723ZM35.8757 19.5401L35.8614 22.5608L32.9449 22.575L30.0235 22.5845V19.6253V16.6661L30.5859 16.6614C30.8909 16.6567 32.0775 16.6283 33.2165 16.5998C34.3555 16.5667 35.423 16.5336 35.5898 16.5336L35.8852 16.5241L35.8757 19.5401ZM28.7988 19.6348L28.7845 22.5608H25.8679H22.9466L22.9323 19.7058L22.9228 16.8555L23.1229 16.8508C23.2373 16.8461 24.2619 16.8176 25.4009 16.7892C26.5399 16.7561 27.7742 16.723 28.1411 16.723L28.8083 16.7135L28.7988 19.6348ZM21.7313 19.7437V22.5845L18.8148 22.575L15.8935 22.5608L15.8792 19.8005C15.8744 18.2854 15.8744 17.0402 15.8792 17.0402C15.9125 17.026 20.0396 16.9171 20.8402 16.9123L21.7313 16.9029V19.7437ZM14.6544 19.8147V22.5608L11.7378 22.5703L8.81651 22.5845V19.8857V17.187L9.47417 17.1822C9.83159 17.1775 11.0706 17.1491 12.2239 17.1159C13.3772 17.0828 14.3971 17.0591 14.4876 17.0638L14.6544 17.0686V19.8147ZM7.57745 19.9094V22.5845H5.46151C4.07948 22.5845 3.33128 22.5656 3.31222 22.5372C3.26456 22.4614 2.66409 17.4142 2.69745 17.3811C2.72128 17.3574 5.60925 17.2627 7.06753 17.2438L7.57745 17.2343V19.9094ZM7.57745 26.4906V29.2131H5.838C4.88011 29.2131 4.09854 29.2036 4.09854 29.1941C4.09854 29.161 3.48378 24.0949 3.45995 23.9197L3.43612 23.7682H5.50917H7.57745V26.4906ZM14.6782 26.4906V29.2131H11.7474H8.81651V26.4906V23.7682H11.7474H14.6782V26.4906ZM21.7313 26.4906V29.2131H18.8005H15.8696V26.4906V23.7682H18.8005H21.7313V26.4906ZM28.7988 26.4764L28.7845 29.1894H25.8679H22.9466L22.9323 26.4764L22.9228 23.7682H25.8631H28.8083L28.7988 26.4764ZM35.8852 26.4906V29.2131H32.9544H30.0235V26.4906V23.7682H32.9544H35.8852V26.4906ZM39.6787 24.0617C39.5309 24.4452 37.863 28.6828 37.6914 29.1042C37.6581 29.1989 37.6152 29.2131 37.3626 29.2131H37.0767V26.4906V23.7682H38.4349H39.7931L39.6787 24.0617ZM7.57745 32.3522V34.3076L6.16206 34.194C5.3805 34.1324 4.72761 34.0709 4.71331 34.0519C4.69425 34.033 4.59417 33.2612 4.48456 32.338C4.37495 31.4147 4.27487 30.6003 4.26057 30.5246L4.23198 30.3967H5.90471H7.57745V32.3522ZM14.6782 32.6221V34.8474H14.54C14.4685 34.8474 13.2009 34.7527 11.7283 34.6343C10.2557 34.5159 8.9976 34.4212 8.93565 34.4212H8.81651V32.409V30.3967H11.7474H14.6782V32.6221ZM21.7313 32.9061C21.7313 34.2839 21.7171 35.4155 21.698 35.4155C21.5884 35.4203 15.9792 34.9799 15.9316 34.961C15.8839 34.9468 15.8696 34.4496 15.8696 32.6694V30.3967H18.8005H21.7313V32.9061ZM28.7988 33.2092L28.8083 35.9932L28.5224 35.9647C28.3651 35.9505 27.1117 35.8511 25.7345 35.747C24.3572 35.6428 23.1706 35.5434 23.0896 35.5339L22.9466 35.5102L22.9561 32.9677C22.9656 31.5662 22.9704 30.4157 22.9704 30.4062C22.9704 30.4015 24.281 30.4015 25.8774 30.4062L28.7845 30.4204L28.7988 33.2092ZM35.8852 32.0539V33.7063L35.3658 35.0225C35.0846 35.747 34.832 36.3861 34.813 36.4477C34.7892 36.5282 34.7606 36.5518 34.7034 36.5282C34.4937 36.4382 34.1553 36.4003 32.4063 36.2678C31.3722 36.1873 30.4095 36.1115 30.2761 36.0973L30.0235 36.0689V33.2328V30.3967H32.9544H35.8852V32.0539ZM37.172 30.4299C37.172 30.4536 37.1481 30.5009 37.1243 30.5388C37.0862 30.5956 37.0767 30.5909 37.0767 30.5009C37.0767 30.4441 37.1005 30.3967 37.1243 30.3967C37.1529 30.3967 37.172 30.411 37.172 30.4299ZM8.2637 52.6735C8.78315 52.9197 9.21206 53.4121 9.36456 53.9471C9.49323 54.3922 9.45034 55.003 9.25495 55.4007C9.07385 55.7747 8.64495 56.2008 8.28276 56.3665C7.03417 56.93 5.60925 56.1819 5.37573 54.8325C5.228 53.985 5.69979 53.0854 6.49565 52.6972C7.01987 52.4415 7.74901 52.432 8.2637 52.6735ZM41.4849 52.7019C41.8661 52.8865 42.2807 53.3079 42.4427 53.6678C43.2243 55.4243 41.4229 57.1572 39.6644 56.3429C38.8876 55.9878 38.4063 55.0645 38.5445 54.2217C38.7732 52.8629 40.2506 52.0958 41.4849 52.7019Z" fill="black"/>
<path d="M6.93419 53.5637C6.64825 53.701 6.51958 53.8335 6.39091 54.1176C6.00489 54.9604 6.80076 55.8694 7.6967 55.6137C8.19709 55.467 8.49732 55.074 8.49732 54.5674C8.50209 53.9472 8.08748 53.5116 7.45841 53.469C7.2249 53.4548 7.12958 53.469 6.93419 53.5637Z" fill="black"/>
<path d="M40.2173 53.521C39.9504 53.6157 39.7598 53.7719 39.6168 54.0134C39.5025 54.198 39.4834 54.288 39.4834 54.5673C39.4882 54.9366 39.5501 55.1023 39.7979 55.3391C40.0267 55.5568 40.2507 55.6515 40.5795 55.6468C40.9322 55.6468 41.1895 55.5284 41.4278 55.2491C42.1426 54.4206 41.2562 53.1517 40.2173 53.521Z" fill="black"/>
</svg>
