<svg width="68" height="67" viewBox="0 0 68 67" fill="none" xmlns="http://www.w3.org/2000/svg">
<path fill-rule="evenodd" clip-rule="evenodd" d="M0 33.5C0 52.0016 15.2223 67 34 67C52.7777 67 68 52.0016 68 33.5C68 14.9984 52.7777 0 34 0C15.2223 0 0 14.9984 0 33.5ZM56.95 31.155V56.7825H10.88V31.155H14.8848C14.8552 31.6631 14.8696 32.3306 14.9281 32.6577C15.2627 34.4975 16.3135 36.1499 17.8609 37.27C19.2361 38.2623 20.9492 38.8159 23.0136 38.931C24.3584 39.0033 25.0207 38.867 25.8248 38.3347C26.2877 38.0323 26.8958 37.385 27.2135 36.8654C27.2608 36.7845 27.2507 36.8271 27.1831 36.9719C27.0108 37.3467 26.5749 38.4965 26.2269 39.4846C25.5409 41.4351 25.3687 41.8398 25.0207 42.3124C24.6963 42.7554 24.4057 43.2238 23.2805 45.1275C21.1654 48.7091 20.8681 49.1734 20.5302 49.446C20.1855 49.7271 19.6483 49.9442 18.9726 50.0763C18.378 50.1955 16.4857 50.1827 15.3235 50.0593C13.2049 49.825 12.7589 49.8463 12.84 50.1742C12.9887 50.7705 15.6782 51.3028 17.7934 51.1581C18.8949 51.0814 19.5335 50.9621 20.2363 50.7023C20.7803 50.5022 21.1452 50.2637 21.5303 49.8633C21.8716 49.5098 25.2538 45.2766 26.0613 44.1991C26.3248 43.8414 26.656 43.3729 26.7911 43.1557C28.3319 40.7026 29.457 37.747 29.5381 35.9412C29.5483 35.7113 29.5618 35.5239 29.5651 35.5239L30.295 35.9839C31.0147 36.4438 31.5147 36.6865 32.1533 36.8867L32.4473 36.9804L32.6331 37.8151C32.8342 38.7056 33.0672 39.754 33.2526 40.5885L33.2531 40.5909C33.3167 40.877 33.3746 41.1379 33.4238 41.3584C33.5825 42.091 33.5859 42.1122 33.5825 42.7C33.5791 43.1131 33.542 43.671 33.4576 44.51C33.1265 47.8191 33.0656 48.8284 33.1027 50.6852C33.1027 50.7449 33.0859 50.928 33.0622 51.0898C33.0319 51.3071 33.0251 51.733 33.0385 52.6443C33.0757 55.008 33.2853 56.605 33.5556 56.605C33.6298 56.605 33.7312 56.3027 33.7853 55.9194C33.8664 55.3487 33.9035 54.7056 33.9576 52.7508C33.988 51.7457 34.0252 50.8429 34.0421 50.7492C34.059 50.6554 34.157 50.2722 34.2583 49.8974C34.6537 48.4579 35.1402 46.1028 35.3665 44.544C35.4714 43.8201 35.4714 42.7895 35.3633 41.8908C35.2517 40.9538 35.0186 39.5145 34.7888 38.3773C34.6807 37.8279 34.5962 37.3679 34.603 37.3595C34.6063 37.3509 34.8766 37.3765 35.1977 37.4148C35.5186 37.4489 35.9815 37.4915 36.2248 37.5085L36.6641 37.5341L36.7553 38.0578C37.1134 40.1149 37.8264 41.8099 38.8906 43.1259C39.1373 43.4325 39.367 43.7562 39.4042 43.8499C39.4414 43.9436 39.5664 44.3354 39.6847 44.7229C40.107 46.1454 40.7051 47.4912 41.3876 48.5772C41.7897 49.2118 42.7358 50.3829 43.317 50.9664C44.8542 52.4952 46.4964 53.939 47.1012 54.284C47.4053 54.4629 47.4964 54.4884 47.5742 54.416C47.8276 54.186 46.9052 52.9468 45.1921 51.2176C44.8847 50.911 44.4893 50.532 44.3136 50.3744C44.138 50.2211 43.9657 50.0593 43.9285 50.0167C43.8947 49.974 43.7596 49.71 43.6278 49.4289C43.4993 49.1478 42.9013 47.9426 42.3032 46.7459C41.7053 45.5534 41.1444 44.4206 41.0564 44.2289C40.9686 44.0415 40.749 43.4198 40.5666 42.8448C40.3841 42.2741 40.1408 41.5373 40.0226 41.2094C39.6441 40.1319 38.938 38.3944 38.5055 37.4786L38.4346 37.3254L38.7454 37.1848C39.8064 36.7206 40.6578 35.805 41.1713 34.5784L41.293 34.293L41.3335 34.9191C41.4045 36.0051 41.5667 36.6014 41.9181 37.0443C42.2661 37.4872 42.7121 37.6533 43.5264 37.6533C45.1043 37.649 47.0268 37.1891 48.2127 36.529C48.2273 36.521 48.2407 36.5133 48.2531 36.5063C48.3122 36.4728 48.3496 36.4516 48.3817 36.4578C48.437 36.4684 48.4759 36.5613 48.5824 36.8148C48.5946 36.8437 48.6076 36.8748 48.6216 36.908C48.8683 37.4872 49.1724 38.1217 49.7366 39.2503C50.0205 39.8125 50.2942 40.3747 50.3482 40.5024C50.4901 40.8388 50.5814 40.9113 50.8787 40.9071C51.2808 40.9071 51.7639 40.6643 52.6863 40.0127C54.6495 38.6158 56.1834 37.2316 56.0551 36.9676C55.9671 36.7888 54.5481 37.2614 53.2945 37.8918C52.8214 38.126 51.8653 38.7265 51.5781 38.965C51.4396 39.0843 51.2571 39.2588 51.1761 39.3525C51.0949 39.4505 51.024 39.5229 51.0206 39.5186C51.0206 39.5145 51.0071 39.4463 50.986 39.34V39.3398L50.9859 39.3395C50.9648 39.233 50.9361 39.0883 50.9058 38.931C50.7604 38.1856 50.6084 37.6703 50.3414 37.0229C50.159 36.5758 50.0441 36.3373 49.6995 35.6729C49.6522 35.5836 49.6624 35.5664 49.9462 35.3067C50.5138 34.7871 51.0848 33.9864 51.3449 33.3434C51.6198 32.6575 51.7283 31.8879 51.6546 31.155H56.95ZM51.6546 31.155C51.6404 31.014 51.6194 30.8743 51.5916 30.7369C51.5173 30.358 51.2436 29.6765 51.0071 29.2804C50.7638 28.8674 50.2942 28.2966 49.9225 27.9559L49.6556 27.7132L49.7096 27.6025C50.3786 26.3333 50.7773 25.2345 50.9564 24.1528C50.9902 23.9526 51.0205 23.7823 51.0273 23.7738C51.0307 23.7652 51.1119 23.8462 51.203 23.9527C51.5409 24.353 52.1829 24.8087 53.0817 25.2942C54.0345 25.8052 55.3117 26.3035 55.8118 26.3547C56.0415 26.3759 56.072 26.3717 56.072 26.3078C56.072 26.2652 55.9942 26.1289 55.8963 26.0011C55.2542 25.1451 52.3248 22.8709 51.3754 22.4962C51.2233 22.4323 51.0341 22.3939 50.9024 22.3897C50.5814 22.3897 50.4833 22.4705 50.2908 22.922C50.2062 23.1179 49.9799 23.5864 49.7873 23.9612C49.3413 24.8299 48.9359 25.6775 48.652 26.3376C48.527 26.623 48.4223 26.8614 48.4155 26.8699C48.4122 26.8785 48.2803 26.8188 48.1284 26.738C46.8512 26.0735 44.9962 25.6392 43.4723 25.6434C42.4722 25.6477 41.8978 26.0182 41.5937 26.8486C41.445 27.2575 41.3809 27.6281 41.3335 28.3734L41.293 28.9993L41.1342 28.6416C40.7355 27.743 40.1476 26.9977 39.4482 26.5037C39.2218 26.3419 38.7116 26.0821 38.5528 26.0438C38.4886 26.0309 38.4346 26.0097 38.4346 26.0011C38.4346 25.9926 38.5461 25.7413 38.6812 25.4432C39.3604 23.9569 40.1172 21.934 40.6477 20.1878C40.9094 19.3165 40.9145 19.3064 42.3611 16.4399L42.3911 16.3805C43.0162 15.1411 43.6176 13.9274 43.7258 13.6888C43.8542 13.4078 43.9589 13.2289 44.0264 13.1821C44.1954 13.0586 45.1483 12.1515 45.5807 11.7C46.8579 10.3627 47.5878 9.4003 47.6013 9.02979C47.608 8.89351 47.6013 8.88494 47.4932 8.87214C47.1924 8.83388 46.1957 9.61316 44.4826 11.2187C43.273 12.3559 42.8067 12.8456 42.2019 13.608C40.999 15.1326 40.3369 16.4486 39.6678 18.6377C39.4076 19.4979 39.357 19.6172 39.215 19.779C38.0358 21.095 37.2148 22.8581 36.816 24.928C36.762 25.2175 36.7079 25.5199 36.6944 25.6051C36.6776 25.7498 36.6674 25.7627 36.5187 25.7882C36.4342 25.801 36.218 25.8138 36.039 25.8138C35.8599 25.8138 35.4646 25.8436 35.1604 25.8777C34.8564 25.9118 34.603 25.9373 34.5962 25.9287C34.5928 25.9244 34.6637 25.5454 34.7549 25.0898C35.0388 23.7141 35.2213 22.5813 35.3801 21.2568C35.4612 20.5754 35.4646 19.4595 35.3835 18.8932C35.1402 17.2024 34.7009 15.0517 34.2549 13.378C34.1333 12.9223 34.0286 12.4538 34.0218 12.3346C34.0116 12.2196 33.9846 11.338 33.9576 10.3756C33.9035 8.48461 33.8664 7.83726 33.7853 7.31345C33.6332 6.32964 33.3866 6.5511 33.2143 7.82024C33.0724 8.87214 32.9811 11.4402 33.0622 12.1216C33.0859 12.3218 33.0994 12.8584 33.096 13.4206C33.0892 14.6173 33.1941 16.1463 33.4508 18.6589C33.5825 19.9324 33.6433 20.7543 33.6197 20.9459C33.5961 21.1546 33.3156 22.4407 32.8054 24.6894L32.4371 26.3121L32.2682 26.3674C31.4404 26.6187 30.7714 26.9637 29.8828 27.5812C29.7307 27.6877 29.6024 27.7728 29.599 27.7728C29.5956 27.7728 29.582 27.6238 29.5685 27.4449C29.4097 25.1239 27.9568 21.6444 26.0917 19.1231C25.3011 18.0542 21.6993 13.5739 21.4121 13.3056C20.8276 12.7519 20.0707 12.4368 18.8712 12.2494C17.1413 11.9769 14.8403 12.1429 13.5327 12.6369C13.036 12.8244 12.7387 13.1182 12.8704 13.2885C12.9955 13.4419 13.401 13.4334 15.489 13.2289C16.648 13.1139 18.0637 13.0841 18.6617 13.1651C19.7295 13.314 20.4153 13.6251 20.8242 14.1574C21.162 14.5918 21.6182 15.337 23.0778 17.8284C24.176 19.7066 24.6693 20.5116 24.9767 20.9246C25.3586 21.4399 25.5309 21.836 26.2269 23.8121C26.5749 24.8001 27.0108 25.9457 27.1831 26.3248C27.2405 26.4526 27.2575 26.5037 27.2135 26.4312C27.0514 26.1545 26.4769 25.4774 26.2371 25.2729C25.7268 24.8385 25.1794 24.5617 24.5814 24.4254C24.3348 24.3658 24.088 24.353 23.5171 24.3572C21.8987 24.37 20.4424 24.6724 19.1753 25.2686C16.8811 26.3461 15.3303 28.335 14.9281 30.7242C14.9089 30.8388 14.8944 30.9884 14.8848 31.155H51.6546Z" fill="#A72608"/>
</svg>
